<svg width="600" height="514" viewBox="0 0 600 514" fill="none" xmlns="http://www.w3.org/2000/svg">
<mask id="mask0" mask-type="alpha" maskUnits="userSpaceOnUse" x="0" y="0" width="600" height="514">
<rect width="600" height="514" fill="#C4C4C4"/>
</mask>
<g mask="url(#mask0)">
<path d="M3136.78 300.377C2664.34 -48.7129 2335.63 -70.5995 2124.3 -28.0672C1826.63 31.8429 1674.18 237.209 1334.41 202.658C1125.04 181.366 1079.86 92.898 853.962 47.9361C553.955 -11.7744 284.565 74.7813 104.786 156.512" stroke="#100F10" stroke-width="1.5" stroke-miterlimit="10"/>
<path d="M3144.42 290.737C3020 223.164 2905.32 163.643 2801.9 116.51C2492.44 -23.1361 2266.65 -58.0156 2094.09 -22.8488C1797.25 37.1734 1648.14 246.44 1313.91 211.211C1106.93 189.295 1062.86 97.9336 840.317 53.1528C545.998 -6.0042 279.446 84.1546 99.2829 171.73" stroke="#100F10" stroke-width="1.5" stroke-miterlimit="10"/>
<path d="M3152.06 281.091C3022.27 233.914 2902.98 181.694 2797.2 138.41C2479.18 8.27724 2250.91 -56.1551 2063.87 -17.6371C1767.88 42.5031 1622.11 255.67 1293.4 219.763C1088.82 197.221 1045.85 102.966 826.672 58.3662C538.042 -0.237317 274.33 93.5288 93.782 186.944" stroke="#100F10" stroke-width="1.5" stroke-miterlimit="10"/>
<path d="M3159.71 271.443C3024.54 244.654 2900.54 199.957 2792.51 160.308C2465.61 40.3232 2235.17 -54.2963 2033.66 -12.427C1738.5 47.8302 1596.08 264.899 1272.9 228.311C1070.71 205.143 1028.84 107.997 813.029 63.5788C530.087 5.5296 269.214 102.901 88.2813 202.156" stroke="#FD5052" stroke-width="1.5" stroke-miterlimit="10"/>
<path d="M3167.35 261.803C3026.81 255.409 2898.07 218.249 2787.82 182.213C2451.98 72.4428 2219.53 -51.9915 2003.44 -7.20909C1709.25 53.7583 1570.05 274.13 1252.4 236.861C1052.6 213.076 1011.84 113.032 799.387 68.7942C522.134 11.2993 264.1 112.276 82.7822 217.373" stroke="#100F10" stroke-width="1.5" stroke-miterlimit="10"/>
<path d="M3175 252.159C3029.08 266.158 2895.59 236.565 2783.12 204.114C2438.3 104.621 2203.81 -50.0549 1973.23 -1.99531C1679.89 59.1431 1544.02 283.36 1231.9 245.413C1034.5 221.004 994.838 118.067 785.744 74.0097C514.181 17.0683 258.985 121.65 77.2831 232.588" stroke="#100F10" stroke-width="1.5" stroke-miterlimit="10"/>
<path d="M3182.64 242.517C3031.34 276.909 2893.1 254.905 2778.43 226.018C2424.58 136.878 2188.09 -48.1309 1943.01 3.22094C1650.52 64.5051 1517.99 292.591 1211.39 253.963C1016.38 228.931 977.826 123.1 772.099 79.2242C506.225 22.8363 253.867 131.023 71.7781 247.803" stroke="#100F10" stroke-width="1.5" stroke-miterlimit="10"/>
<path d="M3190.28 232.873C3033.61 287.657 2890.59 273.267 2773.73 247.919C2410.83 169.203 2172.37 -46.2229 1912.8 8.43466C1621.15 69.8486 1491.96 301.82 1190.89 262.515C998.278 236.858 960.823 128.133 758.457 84.4388C498.272 28.6044 248.754 140.396 66.2817 263.02" stroke="#100F10" stroke-width="1.5" stroke-miterlimit="10"/>
<path d="M3197.93 223.229C3035.88 298.405 2888.08 291.652 2769.04 269.816C2397.06 201.597 2156.64 -44.33 1882.58 13.6442C1591.78 75.1651 1465.93 311.047 1170.39 271.06C980.167 244.776 943.815 133.161 744.813 89.6475C490.312 34.3682 243.637 149.765 60.7817 278.228" stroke="#100F10" stroke-width="1.5" stroke-miterlimit="10"/>
<path d="M3205.57 213.588C3038.15 309.157 2885.57 310.063 2764.34 291.724C2383.28 234.074 2140.9 -42.4482 1852.36 18.8646C1562.4 80.4799 1439.89 320.282 1149.89 279.618C962.059 252.714 926.808 138.201 731.168 94.8705C482.36 40.1447 238.519 159.149 55.2781 293.451" stroke="#FD5052" stroke-width="1.5" stroke-miterlimit="10"/>
<path d="M3213.21 203.943C3040.42 319.905 2883.05 328.494 2759.65 313.629C2369.49 266.621 2125.17 -40.5811 1822.15 24.0821C1533.02 85.7807 1413.86 329.516 1129.39 288.17C943.952 260.644 909.804 143.237 717.526 100.085C474.408 45.9165 233.406 168.521 49.7818 308.666" stroke="#100F10" stroke-width="1.5" stroke-miterlimit="10"/>
<path d="M3220.86 194.3C3042.69 330.655 2880.54 346.95 2754.96 335.526C2355.7 299.217 2109.43 -38.7354 1791.93 29.2925C1503.64 91.0628 1387.83 338.741 1108.89 296.718C925.845 268.568 892.801 148.266 703.884 105.296C466.454 51.6779 228.291 177.89 44.2821 323.877" stroke="#100F10" stroke-width="1.5" stroke-miterlimit="10"/>
<path d="M3228.5 184.656C3044.96 341.404 2878.02 365.417 2750.26 357.429C2341.91 331.892 2093.55 -37.527 1761.71 34.5059C1474.13 95.7951 1361.8 347.971 1088.38 305.267C907.733 276.494 875.789 153.299 690.241 110.51C458.5 57.4455 223.175 187.263 38.7815 339.092" stroke="#100F10" stroke-width="1.5" stroke-miterlimit="10"/>
<path d="M3236.14 175.013C3047.23 352.15 2875.51 383.91 2745.57 379.331C2328.14 364.626 2077.82 -35.6638 1731.5 39.7212C1444.76 101.128 1335.77 357.205 1067.88 313.819C889.627 284.423 858.784 158.334 676.596 115.725C450.544 63.2152 218.055 196.638 33.2802 354.304" stroke="#100F10" stroke-width="1.5" stroke-miterlimit="10"/>
<path d="M3243.79 165.371C3049.5 362.903 2873 402.416 2740.88 401.234C2314.38 397.417 2062.09 -33.8028 1701.29 44.9368C1415.38 106.459 1309.74 366.433 1047.38 322.37C871.519 292.351 841.78 163.368 662.953 120.943C442.589 68.9842 212.943 206.012 27.7828 369.523" stroke="#100F10" stroke-width="1.5" stroke-miterlimit="10"/>
<path d="M3251.43 155.727C3051.76 373.652 2870.5 420.937 2736.18 423.134C2300.63 430.26 2046.35 -31.9378 1671.07 50.1504C1386.01 111.787 1283.71 375.663 1026.87 330.921C853.41 300.277 824.771 168.4 649.309 126.154C434.634 74.7514 207.827 215.384 22.2808 384.737" stroke="#100F10" stroke-width="1.5" stroke-miterlimit="10"/>
<path d="M3259.07 146.084C3054.03 384.402 2868 439.475 2731.49 445.038C2286.91 463.15 2030.62 -30.0743 1640.85 55.366C1356.63 117.117 1257.68 384.893 1006.37 339.472C835.302 308.205 807.768 173.435 635.666 131.369C426.681 80.5205 202.711 224.759 16.7811 399.953" stroke="#100F10" stroke-width="1.5" stroke-miterlimit="10"/>
<path d="M3266.71 136.441C3056.3 395.154 2865.51 458.024 2726.79 466.939C2273.21 496.088 2014.88 -28.2118 1610.64 60.5797C1327.27 122.447 1231.65 394.124 985.873 348.02C817.199 316.13 790.764 178.466 622.023 136.581C418.726 86.2876 197.596 234.13 11.2815 415.165" stroke="#100F10" stroke-width="1.5" stroke-miterlimit="10"/>
<path d="M3274.36 126.797C3058.57 405.897 2863.04 476.738 2722.1 488.841C2259.57 529.574 1999.14 -26.3488 1580.42 65.794C1297.88 127.775 1205.61 403.353 965.363 356.572C799.083 324.058 773.753 183.5 608.376 141.792C410.768 92.052 192.477 243.5 5.77847 430.377" stroke="#100F10" stroke-width="1.5" stroke-miterlimit="10"/>
<path d="M3282 117.154C3060.84 416.65 2860.56 495.157 2717.4 510.742C2245.87 562.087 1983.41 -24.486 1550.21 71.0089C1268.51 133.106 1179.58 412.584 944.863 365.124C780.976 331.987 756.746 188.534 594.735 147.016C402.815 97.8297 187.363 252.883 0.279436 445.602" stroke="#100F10" stroke-width="1.5" stroke-miterlimit="10"/>
<path d="M3260.45 123.871C3032.13 420.602 2828.44 495.49 2683.52 509.381C2222.06 553.609 1968.77 -9.0515 1543.68 82.1225C1264.47 141.544 1176.65 413.504 943.773 370.794C919.81 366.518 896.516 359.099 874.494 348.73C770.627 299.507 729.162 198.522 594.962 164.404C406.092 116.343 193.455 259.706 6.14379 435.029" stroke="#100F10" stroke-width="1.5" stroke-miterlimit="10"/>
<path d="M3238.89 130.59C3003.41 424.557 2796.35 495.867 2649.63 508.019C2198.31 545.401 1954.13 6.38461 1537.15 93.2377C1260.43 149.984 1173.74 414.394 942.68 376.466C919.048 372.712 895.998 365.932 874.097 356.294C771.811 310.897 727.877 215.255 595.186 181.796C409.366 134.862 199.543 266.535 12.0067 424.462" stroke="#100F10" stroke-width="1.5" stroke-miterlimit="10"/>
<path d="M3217.34 137.309C2974.69 428.51 2764.28 496.293 2615.74 506.655C2174.62 537.45 1939.68 22.7394 1530.62 104.35C1256.5 159.041 1170.85 415.25 941.588 382.137C918.282 378.903 895.473 372.761 873.694 363.856C773.034 322.254 726.593 231.98 595.412 199.186C412.639 153.378 205.633 273.36 17.8692 413.892" stroke="#100F10" stroke-width="1.5" stroke-miterlimit="10"/>
<path d="M3195.79 144.025C2945.98 432.462 2732.23 496.755 2581.86 505.295C2150.99 529.757 1925.09 38.4253 1524.09 115.467C1252.49 167.651 1167.99 416.058 940.5 387.807C917.517 385.09 894.951 379.587 873.298 371.419C774.295 333.574 725.312 248.709 595.64 216.579C415.917 171.897 211.725 280.189 23.7356 403.325" stroke="#100F10" stroke-width="1.5" stroke-miterlimit="10"/>
<path d="M3174.24 150.743C2917.27 436.415 2700.19 497.281 2547.97 503.932C2127.4 522.31 1910.48 54.0691 1517.57 126.58C1248.47 176.243 1165.15 416.827 939.41 393.477C916.747 391.276 894.424 386.41 872.901 378.982C775.591 344.856 724.03 265.437 595.867 233.968C419.193 190.414 217.817 287.014 29.6 392.755" stroke="#FD5052" stroke-width="1.5" stroke-miterlimit="10"/>
<path d="M3152.68 157.464C2888.55 440.37 2668.17 497.866 2514.08 502.573C2103.84 515.107 1895.86 69.6816 1511.03 137.698C1244.44 184.817 1162.33 417.549 938.316 399.15C914.461 397.191 892.701 392.983 872.498 386.547C776.916 356.095 722.743 282.169 596.093 251.362C422.466 208.933 223.908 293.843 35.464 382.193" stroke="#100F10" stroke-width="1.5" stroke-miterlimit="10"/>
<path d="M3131.13 164.18C2859.84 444.322 2635.88 491.513 2480.2 501.209C2081.03 526.071 1881.24 85.2542 1504.51 148.81C1240.41 193.365 1159.53 418.215 937.227 404.82C913.84 403.41 892.289 399.881 872.101 394.109C778.279 367.281 721.461 298.895 596.317 268.754C425.742 227.451 229.996 300.671 41.3257 371.621" stroke="#100F10" stroke-width="1.5" stroke-miterlimit="10"/>
<path d="M3109.57 170.9C2831.12 448.276 2603.95 491.695 2446.32 499.848C2057.33 519.967 1866.6 100.792 1497.98 159.923C1236.37 201.89 1156.74 418.826 936.136 410.489C913.218 409.623 891.882 406.769 871.703 401.67C779.67 378.419 720.179 315.623 596.544 286.141C429.018 245.965 236.088 307.495 47.1881 361.048" stroke="#100F10" stroke-width="1.5" stroke-miterlimit="10"/>
<path d="M3088.02 177.615C2802.41 452.227 2572.04 492.098 2412.43 498.485C2033.6 513.646 1851.95 116.289 1491.45 171.038C1232.33 210.391 1153.96 419.376 935.043 416.161C912.593 415.831 891.478 413.649 871.302 409.234C781.083 389.495 718.893 332.352 596.764 303.533C432.286 264.484 242.172 314.322 53.0478 350.481" stroke="#100F10" stroke-width="1.5" stroke-miterlimit="10"/>
<path d="M3066.46 184.336C2773.69 456.183 2540.15 492.749 2378.54 497.125C2009.86 507.11 1837.31 131.75 1484.92 182.156C1228.28 218.867 1151.16 426.043 933.953 421.83C911.978 421.405 891.081 420.514 870.905 416.796C782.521 400.512 717.611 349.081 596.994 320.926C435.566 283.003 248.267 321.151 58.9157 339.914" stroke="#100F10" stroke-width="1.5" stroke-miterlimit="10"/>
<path d="M3044.91 191.053C2744.98 460.134 2508.17 501.841 2344.66 495.764C1986.33 482.443 1822.65 147.167 1478.4 193.271C1224.22 227.311 1148.43 420.274 932.864 427.505C911.357 428.227 890.69 427.37 870.508 424.363C783.975 411.474 716.33 365.814 597.221 338.319C438.842 301.522 254.358 327.98 64.7805 329.347" stroke="#100F10" stroke-width="1.5" stroke-miterlimit="10"/>
<path d="M3023.36 197.771C2716.26 464.087 2476.17 502.895 2310.77 494.4C1962.83 476.529 1807.99 162.536 1471.87 204.383C1220.16 235.722 1145.65 420.609 931.771 433.174C911.218 434.524 890.586 434.106 870.105 431.924C785.432 422.359 715.042 382.54 597.444 355.708C442.113 320.037 260.445 334.804 70.6401 318.776" stroke="#100F10" stroke-width="1.5" stroke-miterlimit="10"/>
<path d="M3001.8 204.489C2687.55 468.04 2444.16 504.054 2276.88 493.038C1939.3 470.808 1793.32 177.864 1465.34 215.498C1216.1 244.097 1142.88 420.866 930.682 438.845C910.409 440.697 890.019 440.912 869.711 439.488C786.899 433.184 713.763 399.269 597.675 373.103C445.394 338.559 266.541 341.636 76.5101 308.212" stroke="#100F10" stroke-width="1.5" stroke-miterlimit="10"/>
<path d="M2980.25 211.21C2658.83 471.996 2412.13 505.328 2243 491.679C1915.75 465.271 1778.64 193.147 1458.81 226.616C1212.04 252.438 1140.08 421.042 929.588 444.518C909.587 446.871 889.437 447.719 869.309 447.054C788.35 443.942 712.477 416.001 597.898 390.494C448.666 357.076 272.631 348.462 82.3702 297.643" stroke="#100F10" stroke-width="1.5" stroke-miterlimit="10"/>
<path d="M2958.7 217.925C2630.12 475.946 2380.08 506.72 2209.11 490.314C1892.15 459.902 1763.97 208.375 1452.28 237.727C1207.97 260.733 1137.25 421.126 928.497 450.19C908.862 452.924 889.094 455.528 868.91 454.618C789.878 451.056 711.194 432.732 598.124 407.886C451.94 375.595 278.718 355.29 88.2342 287.075" stroke="#100F10" stroke-width="1.5" stroke-miterlimit="10"/>
<path d="M2937.14 224.644C2601.4 479.904 2348.01 508.25 2175.22 488.953C1868.51 454.699 1749.3 223.558 1445.75 248.842C1203.9 268.988 1134.4 421.121 927.41 455.858C907.932 459.21 888.261 461.32 868.516 462.176C791.222 465.251 709.914 449.455 598.353 425.277C455.216 394.109 284.809 362.114 94.098 276.5" stroke="#100F10" stroke-width="1.5" stroke-miterlimit="10"/>
<path d="M2915.59 231.362C2572.69 483.853 2315.9 509.923 2141.34 487.591C1844.81 449.654 1734.63 238.687 1439.22 259.957C1199.83 277.193 1131.5 421.02 926.317 461.528C907.09 465.381 887.657 468.123 868.115 469.74C792.606 475.814 708.629 466.185 598.577 442.665C458.492 412.626 290.901 368.941 99.963 265.935" stroke="#100F10" stroke-width="1.5" stroke-miterlimit="10"/>
<path d="M2894.04 238.08C2543.98 487.806 2283.75 511.757 2107.45 486.229C1821.04 444.757 1719.93 253.349 1432.7 271.07C1195.74 285.009 1128.56 420.828 925.228 467.199C906.244 471.552 887.048 474.925 867.718 477.304C793.952 486.318 707.347 482.915 598.805 460.057C461.768 431.144 296.993 375.768 105.828 255.366" stroke="#100F10" stroke-width="1.5" stroke-miterlimit="10"/>
<path d="M2872.48 244.797C2515.26 491.758 2251.54 513.76 2073.56 484.865C1797.19 439.997 1705.29 268.779 1426.16 282.184C1170.97 294.438 1115.16 443.923 867.315 484.865C705.016 511.675 455.969 492.669 111.686 244.797" stroke="#FD5052" stroke-width="1.5" stroke-miterlimit="10"/>
</g>
</svg>
